<svg class="trolley__svg" width="100%" height="100%" viewBox="0 0 500 474" xmlns="http://www.w3.org/2000/svg">
	<g fill="none" fill-rule="evenodd">
		<path d="m0 0h500v474h-500z" fill="#e9ecef"/>
		<g fill-rule="nonzero" transform="translate(76 88)">
			<path d="m329.990376 297.786825h-215.617116c-1.841949.037099-3.560366-.907497-4.492409-2.469433-.932044-1.561935-.932044-3.497092 0-5.059027.932043-1.561935 2.65046-2.506531 4.492409-2.469432h215.617116c1.841949-.037099 3.560366.907497 4.49241 2.469432.932043 1.561935.932043 3.497092 0 5.059027-.932044 1.561936-2.650461 2.506532-4.49241 2.469433z" fill="#8b9da8"/><path d="m174.181818 339.287879c0 10.217268-8.282732 18.5-18.5 18.5s-18.5-8.282732-18.5-18.5 8.282732-18.5 18.5-18.5c4.906679-.000568 9.612556 1.948351 13.082102 5.417898 3.469546 3.469546 5.418466 8.175423 5.417898 13.082102z" fill="#5c7684"/><path d="m165.181818 338.785573c.000873 4.04476-2.434959 7.691732-6.171579 9.2402s-8.038089.693456-10.898475-2.166312-3.716327-7.161053-2.168666-10.898008c1.54766-3.736954 5.194106-6.173574 9.238866-6.173574 5.521924 0 9.998662 4.475771 9.999854 9.997694z" fill="#41555e"/><path d="m166.181818 318.787879h-23l6.190923 18.922159h.023291c1.452453 5.547926 5.293197 5.067363 5.293197 5.067363s3.999539.233845 5.28261-5.067363h.027525z" fill="#a2b7c4"/><path d="m143.147149 318.787879h23.041764l2.992905-10h-29z" fill="#8ea1ac"/><path d="m158.181818 333.287879c0 1.932996-1.567003 3.5-3.5 3.5-1.932996 0-3.5-1.567004-3.5-3.5 0-1.932997 1.567004-3.5 3.5-3.5 1.932997 0 3.5 1.567003 3.5 3.5z" fill="#dadada"/><path d="m322.181818 339.290019c-.001182 10.216989-8.284437 18.498648-18.501427 18.49786-10.216989-.000788-18.498967-8.283724-18.498573-18.500714.000394-10.216989 8.283011-18.499286 18.5-18.499286 4.906876 0 9.612748 1.949395 13.082232 5.419281 3.469485 3.469886 5.418336 8.175983 5.417768 13.082859z" fill="#5c7684"/><path d="m314.181818 338.785573c.000873 4.04476-2.434959 7.691732-6.171579 9.2402s-8.038089.693456-10.898475-2.166312-3.716327-7.161053-2.168666-10.898008c1.54766-3.736954 5.194106-6.173574 9.238866-6.173574 5.521924 0 9.998662 4.475771 9.999854 9.997694z" fill="#41555e"/><path d="m315.181818 318.787879h-23l6.193611 18.922159h.021175c1.452587 5.547926 5.293684 5.067363 5.293684 5.067363s4.002025.233845 5.293684-5.067363h.027528z" fill="#a2b7c4"/><path d="m292.145028 318.787879h23.043885l2.992905-10h-29z" fill="#8ea1ac"/><path d="m307.181818 333.287879c0 1.932996-1.567003 3.5-3.5 3.5-1.932996 0-3.5-1.567004-3.5-3.5 0-1.932997 1.567004-3.5 3.5-3.5 1.932997 0 3.5 1.567003 3.5 3.5z" fill="#dadada"/><g fill="#a2b7c4"><path d="m67.7148239 77.7878788-14.6162162-48.3744452-17.9167895-9.5849361 3.1642915-6.0406187 20.3996724 10.9148621 15.4360361 51.0902488z"/><path d="m116.100042 233.787879c-11.234967 0-16.1003184-9.997075-17.162277-15.947054l-54.8671515-182.2068866-13.8887953-6.7465839 2.9679287-6.0994757 16.5618542 8.0578858 12.9443572 42.9782384 284.5258597 7.323215-4.788429 112.863793c-2.683743 12.038776-16.903732 12.839652-19.042607 12.893044l-203.921702 26.616865c-1.1009.176591-2.214051.266959-3.329038.266959zm-51.3842686-153.1275939 40.8416046 135.6343149.036325.213567c.213674 1.219468 2.39742 11.981113 12.856751 10.293933l204.432383-26.680935h.213673c.09829 0 10.747791-.149497 12.606753-7.321079l4.40809-105.0536453z"/><path d="m102.066278 75.4063558h6.769566v154.8450292h-6.769566z" transform="matrix(.96265094 -.27074558 .27074558 .96265094 -37.439243 34.258423)"/><path d="m127.022488 75.0648612h6.817048v154.4968658h-6.817048z" transform="matrix(.9659036 -.25890199 .25890199 .9659036 -34.986986 38.962184)"/><path d="m149.706943 76.6481682h6.790397v147.9241928h-6.790397z" transform="matrix(.97146639 -.23717727 .23717727 .97146639 -31.352774 40.609802)"/><path d="m171.662732 77.1989762h6.788259v143.4792188h-6.788259z" transform="matrix(.97792934 -.20893589 .20893589 .97792934 -27.254996 39.862834)"/><path d="m195.992705 78.1419527h6.790397v139.1390093h-6.790397z" transform="matrix(.97995949 -.1991969 .1991969 .97995949 -25.427829 42.677666)"/><path d="m217.603958 79.7678673h6.78826v134.6812067h-6.78826z" transform="matrix(.98716415 -.1597089 .1597089 .98716415 -20.657834 37.183623)"/><path d="m242.289991 79.4972663h6.788259v131.5169157h-6.788259z" transform="matrix(.99372895 -.11181582 .11181582 .99372895 -14.70119 28.382276)"/><path d="m267.847206 81.4218546h6.790397v127.6599014h-6.790397z" transform="matrix(.9971589 -.07532681 .07532681 .9971589 -10.170728 20.844499)"/><path d="m291.597403 81.2165681h6.78826v125.0963979h-6.78826z" transform="matrix(.99950106 -.03158521 .03158521 .99950106 -4.393657 9.389098)"/><path d="m257.177152 140.617572h124.47423v6.790398h-124.47423z" transform="matrix(.00907559 -.99995882 .99995882 .00907559 172.508555 462.106883)"/><path d="m74.181818 117.787879h268v7h-268z"/><path d="m91.5793127 171.862739h248.5956843v6.78826h-248.5956843z" transform="matrix(.99683462 -.07950302 .07950302 .99683462 -13.250119 17.71764)"/><path d="m335.986802 308.786796h-216.789292c-.256118-.000106-.511868-.019563-.765104-.058206-5.71263-.877411-8.450333-3.936491-9.741178-6.348831-3.20574-6.001748-.427432-13.478062.34622-15.306181l17.702101-56.783773c.882612-2.651667 3.706782-4.103029 6.352182-3.264434 2.6454.838596 4.13884 3.658646 3.359076 6.342916l-17.774765 57.046781c-.064481.204834-.140838.40567-.228676.601468-.784338 1.772068-1.523795 5.126493-.784338 6.491114.305614.562664 1.18185.86232 1.974737 1.011071h216.349037c1.843217-.038102 3.562817.932021 4.495502 2.536166.932686 1.604145.932686 3.591598 0 5.195743-.932685 1.604145-2.652285 2.574268-4.495502 2.536166z"/></g><path d="m32.1513441 30.4907427c-.4878181 1.0951228-1.7806387 1.5939369-2.8907146 1.1153358l-27.76510844-12.5139395c-1.10927142-.480109-1.61471426-1.7574469-1.12908419-2.853383l6.84574753-15.15193247c.48434889-1.09384102 1.77319748-1.59451987 2.8820791-1.11960092l27.7737439 12.51820459c1.1095501.4809989 1.6148705 1.7589818 1.1290842 2.8555155z" fill="#e7392e"/>
		</g>
		<g id="buttons" transform="translate(140.676648 168.623351)">
			<path id="protein-btn" class="trolley__btn protein" onclick="showProteinOverlay();" d="m12.8719764 43.4063763h88.9637156l19.841845 94.1917637-64.0892446 8.730672c-4.9455806.765425-8.388731.765425-10.3294511 0-1.9407201-.765424-3.8244531-2.866359-5.6511989-6.302804z" fill="#fc0"/>
			<path id="fibre-btn" class="trolley__btn fibre" onclick="showFibreOverlay();" d="m99.565776 2.12289815 175.996938 4.9711003-4.410765 105.16991655c-.365977 2.012327-1.013911 3.415485-1.943802 4.209477-.929891.793991-2.948323 1.667521-6.055298 2.62059l-135.070498 17.898097z" fill="#007096"/>
			<path id="junk-btn" class="trolley__btn junk" onclick="showJunkOverlay();" d="m0 0 93.0198295 2.12289815 7.3473935 34.49521865h-89.2988262z" fill="#212529"/>
		</g>
	</g>
</svg>